<?xml version="1.0" standalone="no"?>
<!DOCTYPE svg PUBLIC "-//W3C//DTD SVG 20010904//EN"
 "http://www.w3.org/TR/2001/REC-SVG-20010904/DTD/svg10.dtd">
<svg version="1.0" xmlns="http://www.w3.org/2000/svg"
 width="847.000000pt" height="847.000000pt" viewBox="0 0 847.000000 847.000000"
 preserveAspectRatio="xMidYMid meet">
<metadata>
Created by potrace 1.11, written by Peter Selinger 2001-2013
</metadata>
<g transform="translate(0.000000,847.000000) scale(0.100000,-0.100000)"
fill="#000000" stroke="none">
<path d="M2076 8193 c-2 -2 -24 -7 -48 -9 -23 -3 -56 -7 -73 -9 -16 -3 -47 -8
-68 -11 -52 -8 -72 -12 -72 -15 0 -1 -9 -3 -20 -5 -40 -6 -73 -14 -115 -29
-23 -8 -50 -15 -59 -15 -9 0 -27 -6 -41 -13 -14 -8 -47 -20 -73 -27 -26 -8
-47 -18 -47 -22 0 -4 -3 -7 -7 -6 -15 4 -81 -23 -93 -37 -7 -8 -16 -12 -21
-10 -4 3 -25 -5 -46 -18 -21 -13 -42 -25 -48 -27 -33 -8 -55 -21 -55 -31 0 -6
-6 -9 -14 -6 -8 3 -17 -1 -20 -10 -4 -8 -12 -13 -19 -10 -7 3 -23 -6 -35 -18
-13 -13 -36 -30 -52 -37 -17 -7 -30 -16 -30 -20 0 -5 -7 -8 -15 -8 -8 0 -15
-4 -15 -8 0 -4 -12 -15 -27 -24 -16 -9 -45 -31 -65 -48 -20 -17 -38 -30 -40
-29 -7 6 -219 -202 -292 -286 -33 -38 -70 -81 -83 -95 -13 -14 -23 -29 -23
-35 0 -5 -16 -28 -35 -50 -19 -22 -35 -46 -35 -53 0 -7 -7 -15 -15 -18 -8 -4
-13 -9 -10 -14 2 -4 -4 -16 -13 -26 -10 -10 -25 -34 -32 -51 -8 -18 -18 -33
-21 -33 -4 0 -10 -11 -13 -25 -4 -14 -11 -25 -17 -25 -6 0 -8 -4 -4 -9 3 -5
-2 -17 -11 -25 -8 -9 -13 -16 -9 -16 3 0 -6 -20 -19 -45 -14 -25 -22 -45 -18
-45 4 0 2 -4 -4 -8 -13 -8 -42 -83 -86 -222 -17 -52 -35 -103 -40 -113 -5 -10
-6 -22 -3 -27 4 -6 2 -10 -2 -10 -5 0 -9 -8 -10 -17 0 -10 -4 -34 -8 -53 -3
-19 -7 -41 -7 -47 -1 -7 -4 -13 -7 -13 -5 0 -11 -49 -15 -117 0 -13 -3 -23 -6
-23 -22 0 -18 -685 4 -708 3 -3 0 -12 -7 -20 -6 -9 -7 -13 -1 -9 7 4 12 -6 13
-26 5 -75 7 -93 12 -102 3 -6 6 -26 8 -45 2 -19 6 -37 10 -40 3 -3 7 -23 8
-45 2 -22 6 -47 9 -55 4 -8 8 -28 10 -43 2 -16 8 -37 14 -47 5 -10 10 -29 10
-43 0 -13 3 -27 7 -31 4 -3 8 -15 10 -26 5 -37 8 -45 15 -51 5 -3 9 -17 10
-32 1 -15 5 -27 9 -27 4 0 9 -12 12 -27 3 -16 11 -41 18 -58 7 -16 13 -32 13
-35 4 -16 52 -129 64 -147 7 -12 11 -26 8 -32 -3 -5 -3 -11 1 -13 5 -1 24 -34
43 -73 51 -102 121 -227 138 -247 8 -10 12 -18 8 -18 -4 0 -1 -7 6 -15 28 -31
38 -45 39 -52 2 -15 64 -103 72 -103 4 0 5 -5 2 -10 -3 -6 1 -13 9 -16 9 -3
16 -11 16 -17 0 -11 80 -120 93 -125 4 -2 7 -9 7 -16 0 -6 9 -18 20 -26 11 -8
20 -20 20 -26 0 -7 3 -14 8 -16 4 -1 29 -30 57 -63 27 -33 53 -62 58 -63 4 -2
5 -7 2 -12 -3 -5 4 -11 15 -15 11 -3 20 -11 20 -16 0 -6 22 -33 50 -61 27 -28
50 -53 50 -56 0 -6 47 -55 250 -257 68 -69 126 -125 128 -125 2 0 30 -27 62
-60 32 -33 60 -60 63 -60 3 0 34 -28 71 -63 36 -34 88 -82 117 -107 28 -25 70
-64 95 -87 24 -22 44 -40 44 -38 0 3 18 -14 40 -35 23 -22 45 -40 50 -40 6 0
10 -7 10 -15 0 -8 5 -15 10 -15 10 0 50 -34 122 -102 15 -15 28 -26 28 -23 0
2 15 -11 33 -28 19 -18 67 -61 107 -97 40 -36 81 -73 92 -82 10 -10 23 -18 28
-18 6 0 10 -7 10 -15 0 -8 4 -15 9 -15 5 0 29 -19 54 -42 25 -24 71 -65 102
-93 32 -27 75 -67 96 -88 22 -20 44 -37 50 -37 5 0 7 -4 4 -10 -3 -5 -2 -10 3
-10 5 0 42 -33 84 -73 41 -39 88 -84 104 -99 16 -15 34 -32 39 -38 6 -6 63
-62 127 -125 64 -63 114 -115 111 -115 -3 0 7 -10 23 -22 16 -12 33 -28 37
-35 5 -7 41 -47 82 -88 40 -41 72 -75 70 -75 -4 0 53 -62 152 -165 29 -30 51
-55 49 -55 -3 0 15 -21 40 -47 47 -51 48 -52 134 -153 30 -36 60 -70 65 -76
11 -12 86 -98 145 -167 19 -22 45 -50 58 -63 12 -13 22 -28 22 -34 0 -6 5 -8
10 -5 6 3 10 -1 10 -9 0 -9 4 -16 9 -16 5 0 13 -9 16 -20 3 -11 12 -20 18 -20
7 0 22 -16 35 -35 12 -19 27 -35 32 -35 6 0 10 -5 10 -10 0 -6 8 -20 18 -31
19 -19 20 -18 103 72 106 115 129 142 154 172 11 14 23 23 28 20 4 -2 7 0 7 5
0 5 11 22 25 38 14 16 25 33 25 37 0 5 5 5 10 2 6 -3 10 -2 10 4 0 5 18 28 39
50 22 23 38 41 36 41 -1 0 16 20 39 44 22 24 77 83 121 132 44 48 91 99 104
113 12 14 48 55 80 89 115 130 157 176 194 214 20 21 35 38 33 38 -4 0 133
143 266 278 39 39 76 72 80 72 5 0 6 5 3 10 -3 6 -2 10 3 10 13 0 100 88 94
95 -3 3 1 5 8 5 7 0 39 27 72 60 32 33 63 60 69 60 5 0 7 5 4 10 -3 6 -2 10 3
10 5 0 32 23 61 50 29 28 57 50 62 50 6 0 7 5 4 10 -3 6 1 10 10 10 9 0 13 5
10 10 -3 6 -2 10 3 10 6 0 26 16 46 36 20 20 36 34 36 31 0 -3 24 18 54 47
102 96 178 166 182 166 3 0 17 12 32 27 15 16 61 57 102 93 40 36 91 82 112
102 21 21 38 36 38 33 0 -2 15 11 33 28 81 77 200 183 218 193 11 5 17 12 14
15 -2 3 12 19 32 35 20 16 48 41 61 56 14 15 30 25 36 21 6 -3 8 -3 4 1 -6 8
81 96 95 96 5 0 5 5 2 10 -3 6 -1 10 4 10 14 0 471 461 471 476 0 1 12 15 28
31 15 16 45 51 67 77 22 27 48 56 58 64 9 9 17 22 17 29 0 7 4 13 8 13 5 0 35
36 67 80 32 44 62 80 67 80 4 0 8 6 8 13 0 7 11 24 25 39 14 15 25 30 25 33 0
10 83 130 99 143 8 6 11 12 7 12 -7 0 30 68 43 80 11 9 52 90 47 90 -3 0 3 9
14 20 12 12 18 25 15 30 -4 6 -2 10 2 10 5 0 19 24 33 53 13 28 28 55 33 58 5
3 8 9 7 13 -1 4 8 30 21 59 13 29 24 54 24 57 1 3 12 28 24 55 12 28 23 58 24
68 1 9 4 17 8 17 4 0 10 15 14 33 4 17 9 34 10 37 1 3 5 12 8 20 22 53 70 237
71 273 0 9 3 17 6 17 4 0 7 6 8 13 1 22 11 92 12 92 3 0 9 40 12 68 1 15 5 27
8 27 3 0 5 15 6 33 0 17 5 68 10 112 10 90 10 556 1 595 -4 14 -9 44 -11 65
-3 22 -8 56 -12 75 -3 19 -7 47 -8 63 0 15 -4 27 -8 27 -4 0 -7 8 -7 18 0 16
-8 57 -11 57 -1 0 -4 11 -7 25 -6 33 -9 42 -16 60 -4 8 -8 24 -10 35 -1 11 -7
27 -12 35 -5 8 -10 20 -12 25 -1 6 -4 21 -7 34 -3 12 -10 29 -17 37 -6 8 -8
14 -4 14 4 0 2 7 -5 15 -7 8 -9 15 -4 15 4 0 3 5 -4 12 -7 7 -12 20 -12 30 0
10 -4 18 -10 18 -5 0 -10 5 -10 11 0 6 -11 33 -25 60 -13 27 -21 49 -17 49 4
0 3 4 -3 8 -5 4 -19 25 -31 47 -29 56 -48 89 -55 95 -3 3 -9 12 -13 20 -19 40
-90 144 -123 180 -13 14 -23 28 -23 32 0 8 -29 43 -102 122 -32 35 -68 75 -81
89 -12 15 -27 27 -33 27 -6 0 -17 11 -24 25 -7 14 -15 23 -17 21 -2 -2 -21 13
-42 33 -53 50 -81 72 -81 64 0 -4 -7 2 -15 14 -8 11 -35 34 -60 49 -25 16 -45
32 -45 37 0 4 -7 7 -15 7 -8 0 -15 5 -15 10 0 6 -4 10 -9 10 -5 0 -36 18 -69
40 -33 22 -67 40 -76 40 -9 0 -16 4 -16 9 0 5 -15 14 -32 22 -18 7 -35 15 -38
19 -3 3 -30 16 -60 30 -30 14 -58 29 -62 35 -4 5 -8 6 -8 1 0 -4 -11 -1 -25 8
-13 9 -33 16 -43 16 -10 0 -22 4 -27 9 -6 5 -41 18 -80 31 -38 12 -77 24 -85
28 -8 3 -19 6 -25 7 -5 0 -16 4 -22 8 -7 5 -17 6 -22 2 -5 -3 -12 -1 -16 5 -3
5 -19 10 -34 10 -15 0 -31 3 -34 7 -4 3 -20 8 -37 10 -51 5 -95 12 -95 13 0 2
-32 8 -90 16 -90 13 -590 8 -590 -6 0 -1 -11 -3 -25 -5 -130 -18 -131 -18
-147 -28 -7 -5 -13 -6 -13 -4 0 2 -26 -2 -57 -10 -32 -7 -69 -16 -83 -19 -13
-3 -30 -10 -37 -16 -7 -6 -13 -8 -13 -4 0 4 -13 0 -30 -9 -16 -8 -33 -16 -37
-16 -17 0 -58 -12 -63 -18 -3 -3 -31 -15 -62 -25 -32 -11 -58 -23 -58 -28 0
-4 -3 -7 -7 -6 -13 3 -113 -45 -113 -54 0 -5 -4 -7 -9 -3 -5 3 -16 -1 -23 -9
-8 -7 -24 -17 -36 -20 -12 -4 -22 -12 -22 -17 0 -5 -3 -8 -7 -7 -10 3 -49 -18
-74 -40 -11 -9 -21 -15 -22 -12 -1 3 -9 -1 -17 -8 -8 -7 -49 -38 -90 -68 -41
-30 -77 -58 -80 -62 -3 -4 -21 -19 -40 -33 -33 -25 -179 -167 -246 -240 -17
-19 -59 -72 -95 -119 -35 -46 -72 -93 -81 -104 -10 -10 -15 -22 -13 -26 3 -5
-2 -11 -11 -14 -17 -7 -32 8 -56 54 -7 14 -21 32 -30 41 -10 9 -18 20 -18 25
0 5 -15 26 -33 46 -17 20 -42 49 -54 65 -36 47 -194 205 -263 263 -36 30 -66
58 -68 63 -2 4 -10 7 -18 7 -8 0 -14 3 -14 8 0 4 -17 18 -38 32 -20 14 -39 27
-42 30 -13 14 -120 80 -129 80 -6 0 -11 5 -11 11 0 5 -4 7 -10 4 -5 -3 -10 -1
-10 4 0 6 -7 11 -15 11 -8 0 -15 4 -15 9 0 8 -43 27 -64 29 -5 0 -12 5 -15 10
-9 14 -168 87 -183 84 -5 -1 -8 3 -8 8 0 5 -3 9 -7 8 -7 -2 -47 10 -123 39 -8
3 -24 8 -35 10 -11 2 -27 6 -35 10 -31 13 -105 31 -112 26 -5 -2 -8 0 -8 4 0
5 -10 10 -22 10 -13 1 -39 6 -58 11 -19 5 -45 8 -57 7 -13 -1 -23 2 -23 7 0 5
-10 9 -22 8 -13 -1 -25 -1 -28 0 -29 11 -533 24 -544 13z"/>
</g>
</svg>
